<svg width="10" height="7" viewBox="0 0 10 7" fill="none" xmlns="http://www.w3.org/2000/svg">
<path d="M7.61538 1.92308L5.92308 3.61539H7.19231C7.19231 5.01577 6.05423 6.15385 4.65385 6.15385C4.22654 6.15385 3.82038 6.04808 3.46923 5.8577L2.85154 6.47539C3.37192 6.80539 3.98962 7.00001 4.65385 7.00001C6.52385 7.00001 8.03846 5.48539 8.03846 3.61539H9.30769L7.61538 1.92308ZM2.11538 3.61539C2.11538 2.215 3.25346 1.07693 4.65385 1.07693C5.08115 1.07693 5.48731 1.1827 5.83846 1.37308L6.45615 0.755389C5.93577 0.425389 5.31808 0.230774 4.65385 0.230774C2.78385 0.230774 1.26923 1.74539 1.26923 3.61539H0L1.69231 5.3077L3.38462 3.61539H2.11538Z" fill="#767676"/>
</svg>
