<svg width="14" height="15" viewBox="0 0 14 15" fill="none" xmlns="http://www.w3.org/2000/svg">
<path opacity="0.8" d="M8.05223 7.49989L13.3519 13.3409C13.6968 13.7208 13.6968 14.3351 13.3519 14.7151C13.0072 15.095 12.4498 15.095 12.1051 14.7151L6.80521 8.87405L1.50552 14.7151C1.16063 15.095 0.603404 15.095 0.258671 14.7151C-0.0862237 14.3351 -0.0862237 13.7208 0.258671 13.3409L5.55836 7.49989L0.258671 1.65889C-0.0862237 1.27896 -0.0862237 0.66466 0.258671 0.284728C0.430473 0.0952063 0.656366 0 0.882097 0C1.10783 0 1.33356 0.0952063 1.50552 0.284728L6.80521 6.12572L12.1051 0.284728C12.277 0.0952063 12.5028 0 12.7285 0C12.9542 0 13.18 0.0952063 13.3519 0.284728C13.6968 0.66466 13.6968 1.27896 13.3519 1.65889L8.05223 7.49989Z" fill="black"/>
</svg>
