<svg width="5" height="17" viewBox="0 0 5 17" fill="none" xmlns="http://www.w3.org/2000/svg">
<path d="M2.35707 6.63415C1.28564 6.63415 0.428502 7.46341 0.428502 8.5C0.428502 9.53658 1.28564 10.3659 2.35707 10.3659C3.4285 10.3659 4.28564 9.53658 4.28564 8.5C4.28564 7.46341 3.4285 6.63415 2.35707 6.63415ZM4.28564 1.86585C4.28564 2.90244 3.4285 3.73171 2.35707 3.73171C1.28564 3.73171 0.428502 2.90244 0.428502 1.86585C0.428502 0.829268 1.28564 0 2.35707 0C3.4285 0 4.28564 0.829268 4.28564 1.86585ZM4.28564 15.1341C4.28564 16.1707 3.4285 17 2.35707 17C1.28564 17 0.428502 16.1707 0.428502 15.1341C0.428502 14.0976 1.28564 13.2683 2.35707 13.2683C3.4285 13.2683 4.28564 14.0976 4.28564 15.1341Z" fill="#525252"/>
</svg>
