<svg width="68" height="68" viewBox="0 0 68 68" fill="none" xmlns="http://www.w3.org/2000/svg">
<path d="M30.6 47.6C30.6 45.7222 32.1222 44.2 34 44.2C35.8778 44.2 37.4 45.7222 37.4 47.6C37.4 49.4778 35.8778 51 34 51C32.1222 51 30.6 49.4778 30.6 47.6ZM30.6 20.4C30.6 18.5222 32.1222 17 34 17C35.8778 17 37.4 18.5222 37.4 20.4V34C37.4 35.8778 35.8778 37.4 34 37.4C32.1222 37.4 30.6 35.8778 30.6 34V20.4ZM33.966 0C15.198 0 0 15.232 0 34C0 52.768 15.198 68 33.966 68C52.768 68 68 52.768 68 34C68 15.232 52.768 0 33.966 0ZM34 61.2C18.972 61.2 6.8 49.028 6.8 34C6.8 18.972 18.972 6.8 34 6.8C49.028 6.8 61.2 18.972 61.2 34C61.2 49.028 49.028 61.2 34 61.2Z" fill="#D0D0D0"/>
</svg>
