<svg width="15" height="10" viewBox="0 0 15 10" fill="none" xmlns="http://www.w3.org/2000/svg">
<path d="M4.47668 3.07692H10.4456V4.61538H4.47668V3.07692ZM13.5047 3.84615H14.9223C14.9223 1.72308 13.251 0 11.1917 0H8.20725V1.46154H11.1917C12.4676 1.46154 13.5047 2.53077 13.5047 3.84615ZM1.41762 3.84615C1.41762 2.53077 2.45471 1.46154 3.73057 1.46154H6.71503V0H3.73057C1.6713 0 0 1.72308 0 3.84615C0 5.96923 1.6713 7.69231 3.73057 7.69231H6.71503V6.23077H3.73057C2.45471 6.23077 1.41762 5.16154 1.41762 3.84615ZM12.6839 3.84615H11.1917V6.15385H8.95337V7.69231H11.1917V10H12.6839V7.69231H14.9223V6.15385H12.6839V3.84615Z" fill="#323232"/>
</svg>
